<svg xmlns="http://www.w3.org/2000/svg" width="100%" height="100%" viewBox="0 0 28 28" fill="none" preserveAspectRatio="xMidYMid meet" aria-hidden="true" role="img">
<path fill-rule="evenodd" clip-rule="evenodd" d="M14.0008 27.2001H0.800781L0.800781 14.0004C0.800781 6.72002 6.72058 0.800049 14.0008 0.800049C21.281 0.800049 27.2008 6.72002 27.2008 14.0004C27.2008 21.2809 21.2802 27.2001 14.0008 27.2001ZM2.52859 25.4722H14.0008C20.3246 25.4722 25.4722 20.3245 25.4722 14.0004C25.4722 7.67561 20.3246 2.52791 14.0008 2.52791C7.67614 2.52791 2.52859 7.67639 2.52859 14.0004L2.52859 25.4722Z" fill="currentColor"></path>
<path d="M2.52859 25.4722H14.0008C20.3246 25.4722 25.4722 20.3245 25.4722 14.0004C25.4722 7.67561 20.3246 2.52791 14.0008 2.52791C7.67614 2.52791 2.52859 7.67639 2.52859 14.0004L2.52859 25.4722Z" fill="#8152f7"></path>
<path d="M2.33659 25.4722V25.6642H2.52859H14.0008C20.4307 25.6642 25.6642 20.4305 25.6642 14.0004C25.6642 7.56959 20.4307 2.33591 14.0008 2.33591C7.57009 2.33591 2.33659 7.57037 2.33659 14.0004L2.33659 25.4722ZM14.0008 27.0081H0.992781L0.992781 14.0004C0.992781 6.82606 6.82662 0.992049 14.0008 0.992049C21.1749 0.992049 27.0088 6.82606 27.0088 14.0004C27.0088 21.1748 21.1742 27.0081 14.0008 27.0081ZM25.2802 14.0004C25.2802 20.2185 20.2186 25.2802 14.0008 25.2802H2.72059L2.72059 14.0004C2.72059 7.78242 7.78219 2.71991 14.0008 2.71991C20.2186 2.71991 25.2802 7.78164 25.2802 14.0004Z" stroke="currentColor" stroke-width="0.384"></path>
<path d="M7.52148 13.5201V14.9601C7.52148 15.7554 8.16619 16.4001 8.96148 16.4001C9.75677 16.4001 10.4015 15.7554 10.4015 14.9601V13.5201C10.4015 12.7248 9.75677 12.0801 8.96148 12.0801C8.16619 12.0801 7.52148 12.7248 7.52148 13.5201Z" fill="currentColor"></path>
<path d="M12.3223 10.4V17.6C12.3223 18.3953 12.967 19.04 13.7623 19.04C14.5576 19.04 15.2023 18.3952 15.2023 17.6V10.4C15.2023 9.60467 14.5576 8.95996 13.7623 8.95996C12.967 8.95996 12.3223 9.60467 12.3223 10.4Z" fill="currentColor"></path>
<path d="M17.1211 12.7999V15.6799C17.1211 16.4752 17.7658 17.1199 18.5611 17.1199C19.3564 17.1199 20.0011 16.4752 20.0011 15.6799V12.7999C20.0011 12.0046 19.3564 11.3599 18.5611 11.3599C17.7658 11.3599 17.1211 12.0046 17.1211 12.7999Z" fill="currentColor"></path>
</svg>