<svg viewBox="0 0 40 41" xmlns="http://www.w3.org/2000/svg" xmlns:xlink="http://www.w3.org/1999/xlink"><defs><path id="a-mini" d="M0 0h39.816v39.816H0z"></path></defs><g fill="none" fill-rule="evenodd"><g transform="translate(0 .702)"><mask id="b-mini" fill="#fff"><use xlink:href="#a-mini"></use></mask><path d="M19.908 39.816H0V19.908C0 8.928 8.928 0 19.908 0s19.908 8.928 19.908 19.908-8.928 19.908-19.908 19.908ZM2.606 37.209h17.302c9.538 0 17.301-7.763 17.301-17.301 0-9.538-7.763-17.302-17.301-17.302-9.538 0-17.302 7.764-17.302 17.302v17.301Z" fill="#141A26" mask="url(#b-mini)"></path></g><path d="M23.485 20.61a3.549 3.549 0 1 1-7.098 0 3.549 3.549 0 0 1 7.098 0M34.797 20.61a3.549 3.549 0 1 1-7.098 0 3.549 3.549 0 0 1 7.098 0M11.895 20.61a3.549 3.549 0 1 1-7.098 0 3.549 3.549 0 0 1 7.098 0" fill="#DE3B3D"></path></g></svg>